PathFileType	4	(X/Y/Z)	Patient4_TMGait_0pt5_01_right_32.trc.trc
DataRate	CameraRate	NumFrames	NumMarkers	Units	OrigDataRate	OrigDataStartFrame	OrigNumFrames
75.268817204301	75.268817204301	4	33	mm	75.268817204301	36	       141
Frame#	Time	L.ASIS			Sacral			L.Shoulder			Chest			R.Shoulder			Neck			R.ASIS			R.Thigh.Superior			R.Thigh.Lateral			R.Thigh.Inferior			R.Patella			L.Thigh.Superior			L.Thigh.Lateral			L.Thigh.Inferior			L.Patella			L.Shank.Superior			L.Shank.Lateral			L.Shank.Inferior			R.Shank.Superior			R.Shank.Lateral			R.Shank.Inferior			R.Heel			R.Midfoot.Superior			R.Midfoot.Lateral			R.Toe			L.Heel			L.Midfoot.Lateral			L.Midfoot.Superior			L.Toe			L.Elbow			L.Wrist			R.Elbow			R.Wrist			
		X1	Y1	Z1	X2	Y2	Z2	X3	Y3	Z3	X4	Y4	Z4	X5	Y5	Z5	X6	Y6	Z6	X7	Y7	Z7	X8	Y8	Z8	X9	Y9	Z9	X10	Y10	Z10	X11	Y11	Z11	X12	Y12	Z12	X13	Y13	Z13	X14	Y14	Z14	X15	Y15	Z15	X16	Y16	Z16	X17	Y17	Z17	X18	Y18	Z18	X19	Y19	Z19	X20	Y20	Z20	X21	Y21	Z21	X22	Y22	Z22	X23	Y23	Z23	X24	Y24	Z24	X25	Y25	Z25	X26	Y26	Z26	X27	Y27	Z27	X28	Y28	Z28	X29	Y29	Z29	X30	Y30	Z30	X31	Y31	Z31	X32	Y32	Z32	X33	Y33	Z33	

36	42.535000000000	882.481063800856	955.783781062504	363.552962465732	670.254200782894	1001.778383590566	521.584650031745	861.187554574694	1432.619835358327	362.111400477742	958.784149345125	1350.019387770667	520.712166520992	877.484057305983	1419.618975290617	698.304376356174	866.761525615629	1487.577682002457	515.333869487008	896.330256703634	931.609808514866	637.945746763832	959.506300850653	745.590494451872	606.105300754983	893.144839968218	631.020897704625	664.302265857167	976.017335032824	587.457026236721	583.041730954432	989.147115881894	496.414821311055	589.774418590055	929.704393341825	741.439070896392	391.156726411901	848.952921768267	624.368745685517	326.661198882149	934.612441495319	542.271081147841	387.772434987538	928.707657556355	455.642498851183	387.346050315225	861.700410403122	396.201708174435	382.016633315915	724.652283988424	348.213950192322	330.154830105483	710.522308315085	223.774929156951	391.746789998112	959.618499578607	406.192236213724	598.032066261258	890.137277795866	302.393904963626	660.826362693264	931.883599908247	207.397050900535	598.982383821134	796.854453182660	44.297813542465	567.815430267653	966.815540824451	97.262890306866	609.154844421051	877.592479229447	37.005863285065	645.987150872688	1086.214058013426	42.751715450121	642.446189381631	519.089835592755	148.318448550564	424.870262687966	582.428340129820	113.900639562437	343.829505901676	684.910157741075	128.804776913321	368.627337036897	771.962344262795	33.725773415603	336.131561553923	842.996610206702	1079.780835512802	236.125142959861	1003.110865422192	871.888653527846	230.482477587692	872.811264144548	1064.654246970196	796.052875212398	1016.449252537115	846.795137985899	792.304094084496	
37	42.548285714286	881.392868149931	956.224485918248	366.107027044537	669.444394764121	1002.877031142447	524.204434521497	860.822711242599	1433.046557975495	363.844653974128	959.034220499048	1350.436249232376	522.033242895465	878.883244996433	1420.359549962686	700.125179198878	867.260745243435	1488.137681716040	517.076955725223	895.682249785590	932.287145096825	640.199787785482	957.209893255273	744.945859700333	608.959339962098	889.708712427876	631.178383814651	666.560630629926	972.134887894706	586.979929966600	585.197783360682	984.463179255851	495.866414286828	591.710470592895	933.245569168220	744.823662714600	394.252782684433	857.166514240151	625.936996115166	328.266390623417	945.137205943904	545.884031488049	389.497702977812	940.700247098268	458.165574607518	388.369492948638	872.400445241882	398.488033872826	383.082013788039	733.676339242676	354.197019158861	331.803997653872	716.805863221652	229.785948031192	392.893897098955	954.488516230196	405.879716634122	599.629503254548	884.569547230939	302.195496613102	661.926997003185	925.940853194992	207.225373448264	599.752904843074	790.396315507620	44.352838383518	568.042069091689	960.362157635391	97.227517399514	609.414056208363	871.134444012682	36.934205215243	646.168399556596	1079.795835563287	42.401989511256	642.667096230847	523.043861732674	160.637787667800	426.486785871175	585.006258341211	124.011831837328	345.097279229035	688.526114324502	134.531815484894	369.735690134867	771.478889348364	34.373739039113	336.582156498487	837.389162954295	1079.478701322358	240.446449548753	985.135183725541	862.593494432520	233.511138464428	881.857101460585	1065.934710467280	799.481610750893	1034.855053221737	854.634886132183	794.451820533348	
38	42.561571428571	880.188044730500	956.613560036539	368.665304133359	668.444920733508	1004.019476426538	526.667217047623	860.433124714453	1433.357642184219	365.272927748549	959.207144148279	1350.822008346366	523.111819272294	880.143794931832	1421.193842156295	701.598023356840	867.715079857911	1488.690418142040	518.452383022153	894.748954288647	932.962535600145	642.521774910422	954.706559894398	744.369971285246	611.941117810140	885.888554307856	631.321336142674	668.802911247573	968.029065316697	586.517281608223	587.470452433857	979.486227996827	495.362119905534	593.709438190399	936.305379970696	748.323759885059	397.323758172325	864.713138116091	627.956594000139	329.731404284980	954.757544621269	549.939384523252	391.126293814763	951.925483733062	461.321557964173	389.368513781730	882.770581058997	401.214498230967	384.030745270362	742.762138133219	359.741048913274	333.274808322691	723.921623653290	235.286306093586	393.902730025727	949.125122068240	405.620361422239	601.248565429919	878.764954057950	302.027522449560	663.016969318286	919.872252119862	207.101830958513	600.544057426853	783.879582261974	44.430937919485	568.242420189096	953.876405009485	97.174501162922	609.701548637906	864.607266702910	36.876338623883	646.328452123038	1073.303433662393	42.060288194247	642.887081553365	528.506447368347	170.854345241922	427.921877713650	589.391386492876	132.665456329527	346.211128277043	693.661094311881	139.822228412662	370.712997265429	773.462668218262	35.444723970571	336.882354391112	831.820957161998	1079.210310325968	244.371667668369	966.643313316537	854.141316399316	236.393058616235	890.471221494921	1067.535426597075	802.670853085738	1052.612085749351	863.264191254842	796.393268069916	
39	42.574857142857	878.863614736265	957.012628334068	371.183625531397	667.281329590607	1005.214213600657	528.997292611220	860.039526700677	1433.581011723428	366.427977137560	959.316528959113	1351.188250147926	523.975128990778	881.281012702089	1422.131153604802	702.738305959459	868.151075420069	1489.249848165013	519.489644793180	893.575559473452	933.636191466772	644.880218644045	952.031363960680	743.878356996685	614.959948900352	881.745814973376	631.462203948264	670.968735221697	963.721728426080	586.076523708970	589.767530029219	974.246351206215	494.911233900015	595.682560006344	938.830548187621	751.906717551365	400.288272648982	871.444152872831	630.391388042976	331.059286126588	963.334053854701	554.353609167963	392.627375484571	962.229132919413	465.047033964424	390.300560628939	892.687241676218	404.311536882285	384.835521151250	751.817828221344	364.594387191163	334.511037944684	731.932678355729	239.979080120475	394.698894041815	943.560156945015	405.423675994515	602.829998448958	872.761402111354	301.906659877483	664.068887960154	913.692297030428	207.032424989843	601.330487119102	777.299539504517	44.530558991839	568.424326445422	947.359149367748	97.122400351805	610.014759131299	858.012634373806	36.836333306984	646.472261747817	1066.740046303109	41.736673525320	643.105180756145	535.576942612782	178.376855128159	429.079568645469	595.748359585152	139.332154146629	347.079704482254	700.499763630280	144.327682318369	371.456631043207	778.291350513439	36.862844264948	336.960406515079	826.288096636437	1079.015999997869	247.890795924215	947.802471855391	846.649676072010	239.126247827296	898.627031417128	1069.440593568656	805.603976206734	1069.638673488349	872.656521171773	798.081099384732	
